HIERARCHY
ROOT Pelvis
{
	OFFSET 0.000000 0.941512 0.000000
	CHANNELS 6 Xposition Yposition Zposition Zrotation Yrotation Xrotation 
	JOINT Pelvis_L_Hip
	{
		OFFSET 0.000000 0.000000 0.000000
		CHANNELS 3 Zrotation Yrotation Xrotation
		JOINT L_Hip
		{
			OFFSET 0.062321 -0.080322 -0.016990
			CHANNELS 3 Zrotation Yrotation Xrotation
			JOINT L_Knee
			{
				OFFSET 0.093051 -0.381305 -0.029784
				CHANNELS 3 Zrotation Yrotation Xrotation
				JOINT L_Ankle
				{
					OFFSET -0.010371 -0.431000 -0.033614
					CHANNELS 3 Zrotation Yrotation Xrotation
					End Site #name: L_Foot
					{
						OFFSET 0.069299 -0.038670 0.119418
					}
				}
			}
		}
	}
	JOINT Pelvis_R_Hip
	{
		OFFSET 0.000000 0.000000 0.000000
		CHANNELS 3 Zrotation Yrotation Xrotation
		JOINT R_Hip
		{
			OFFSET -0.055334 -0.094904 -0.002373
			CHANNELS 3 Zrotation Yrotation Xrotation
			JOINT R_Knee
			{
				OFFSET -0.064207 -0.384370 -0.019592
				CHANNELS 3 Zrotation Yrotation Xrotation
				JOINT R_Ankle
				{
					OFFSET 0.025418 -0.419734 -0.065953
					CHANNELS 3 Zrotation Yrotation Xrotation
					End Site #name: R_Foot
					{
						OFFSET -0.057233 -0.039888 0.132134
					}
				}
			}
		}
	}
	JOINT Pelvis_Spine1
	{
		OFFSET 0.000000 0.000000 0.000000
		CHANNELS 3 Zrotation Yrotation Xrotation
		JOINT Spine1
		{
			OFFSET -0.005562 0.124093 -0.043360
			CHANNELS 3 Zrotation Yrotation Xrotation
			JOINT Spine2
			{
				OFFSET 0.012244 0.139499 0.029894
				CHANNELS 3 Zrotation Yrotation Xrotation
				JOINT Spine3
				{
					OFFSET -0.002556 0.056561 0.009225
					CHANNELS 3 Zrotation Yrotation Xrotation
					JOINT Spine3_Neck
					{
						OFFSET 0.000000 0.000000 0.000000
						CHANNELS 3 Zrotation Yrotation Xrotation
						JOINT Neck
						{
							OFFSET -0.005205 0.217920 -0.024551
							CHANNELS 3 Zrotation Yrotation Xrotation
							End Site #name: Head
							{
								OFFSET 0.002365 0.091850 0.046637
							}
						}
					}
					JOINT Spine3_L_Collar
					{
						OFFSET 0.000000 0.000000 0.000000
						CHANNELS 3 Zrotation Yrotation Xrotation
						JOINT L_Collar
						{
							OFFSET 0.072225 0.116603 -0.009480
							CHANNELS 3 Zrotation Yrotation Xrotation
							JOINT L_Shoulder
							{
								OFFSET 0.115937 -0.058643 -0.021018
								CHANNELS 3 Zrotation Yrotation Xrotation
								JOINT L_Elbow
								{
									OFFSET 0.021994 -0.254722 -0.024492
									CHANNELS 3 Zrotation Yrotation Xrotation
									End Site #name: L_Wrist
									{
										OFFSET 0.048810 -0.240214 0.103329
									}
								}
							}
						}
					}
					JOINT Spine3_R_Collar
					{
						OFFSET 0.000000 0.000000 0.000000
						CHANNELS 3 Zrotation Yrotation Xrotation
						JOINT R_Collar
						{
							OFFSET -0.073372 0.120704 -0.024611
							CHANNELS 3 Zrotation Yrotation Xrotation
							JOINT R_Shoulder
							{
								OFFSET -0.108089 -0.054969 -0.020504
								CHANNELS 3 Zrotation Yrotation Xrotation
								JOINT R_Elbow
								{
									OFFSET -0.033684 -0.260739 0.009889
									CHANNELS 3 Zrotation Yrotation Xrotation
									End Site #name: R_Wrist
									{
										OFFSET -0.067980 -0.232763 0.118463
									}
								}
							}
						}
					}
				}
			}
		}
	}
}
MOTION
Frames: 10
Frame Time: 0.041667
0.000000 0.934669 0.000000 -8.062212 3.681740 3.034582 0.000000 0.000000 0.000000 12.362998 -1.570874 -3.574164 -2.431713 0.124684 10.357627 7.788778 21.220104 0.253929 0.000000 0.000000 0.000000 -2.607558 2.089616 -13.473728 6.225330 -1.036093 11.145879 4.868435 6.608309 6.233160 0.000000 0.000000 0.000000 14.882176 -0.962654 -10.593997 -6.906280 -0.234619 -12.355341 -2.943927 0.155494 9.095250 0.000000 0.000000 0.000000 -1.717507 1.008079 -7.981322 0.000000 0.000000 0.000000 30.829656 -16.752782 -8.343221 -27.884936 8.058202 13.851116 8.829860 3.685764 -0.571076 0.000000 0.000000 0.000000 -58.760206 17.491523 -11.917583 -16.295806 -0.845439 -17.561906 -44.697696 -40.356798 -66.316221 
0.000076 0.934678 0.000010 -8.067367 3.681373 3.066126 0.000000 0.000000 0.000000 12.365054 -1.574455 -3.597637 -2.434553 0.125378 10.341910 7.791130 21.228304 0.256022 0.000000 0.000000 0.000000 -2.601862 2.095719 -13.510745 6.211463 -1.032104 11.147901 4.873183 6.610900 6.241395 0.000000 0.000000 0.000000 14.887441 -0.986046 -10.495183 -6.895027 -0.243836 -12.432130 -2.941177 0.155019 9.125638 0.000000 0.000000 0.000000 -1.752357 1.022801 -7.939961 0.000000 0.000000 0.000000 30.873489 -16.710903 -8.303721 -27.977480 8.074410 13.822475 8.805594 3.670118 -0.618910 0.000000 0.000000 0.000000 -58.718650 17.457146 -11.858081 -16.312904 -0.850693 -17.700891 -44.476517 -40.174747 -66.555697 
0.000173 0.934696 0.000096 -8.067588 3.684099 3.090069 0.000000 0.000000 0.000000 12.356525 -1.576644 -3.615779 -2.430617 0.124808 10.337284 7.795053 21.236813 0.255193 0.000000 0.000000 0.000000 -2.605561 2.097552 -13.524792 6.202384 -1.029763 11.137370 4.878023 6.615461 6.248490 0.000000 0.000000 0.000000 14.879165 -1.013517 -10.368845 -6.880553 -0.253052 -12.509393 -2.933282 0.156583 9.141998 0.000000 0.000000 0.000000 -1.775357 1.032539 -7.914605 0.000000 0.000000 0.000000 30.904324 -16.645710 -8.240135 -28.064626 8.084393 13.784875 8.722809 3.625083 -0.699134 0.000000 0.000000 0.000000 -58.669007 17.416329 -11.788626 -16.311644 -0.852931 -17.859850 -44.285556 -40.018108 -66.776909 
0.000250 0.934717 0.000211 -8.076798 3.686703 3.103618 0.000000 0.000000 0.000000 12.366073 -1.577963 -3.619286 -2.436094 0.125743 10.332002 7.794605 21.233188 0.252565 0.000000 0.000000 0.000000 -2.594020 2.097925 -13.522269 6.192400 -1.027261 11.117649 4.880514 6.605849 6.260564 0.000000 0.000000 0.000000 14.876027 -1.044928 -10.227449 -6.862766 -0.260244 -12.564459 -2.920296 0.164370 9.137486 0.000000 0.000000 0.000000 -1.788334 1.038242 -7.906464 0.000000 0.000000 0.000000 30.887142 -16.577654 -8.172535 -28.110655 8.080581 13.741239 8.671084 3.600234 -0.731849 0.000000 0.000000 0.000000 -58.625702 17.396562 -11.754852 -16.324812 -0.857096 -17.949747 -44.149009 -39.912730 -66.954299 
0.000334 0.934733 0.000344 -8.087780 3.689349 3.109992 0.000000 0.000000 0.000000 12.374656 -1.579264 -3.624006 -2.438723 0.126128 10.344036 7.797156 21.231339 0.244885 0.000000 0.000000 0.000000 -2.576841 2.098284 -13.515785 6.174627 -1.022510 11.110981 4.880017 6.608238 6.258089 0.000000 0.000000 0.000000 14.881332 -1.080606 -10.071780 -6.849007 -0.268634 -12.632851 -2.905233 0.180357 9.136038 0.000000 0.000000 0.000000 -1.805111 1.045724 -7.891896 0.000000 0.000000 0.000000 30.889078 -16.503037 -8.096750 -28.171727 8.068406 13.661416 8.584006 3.563503 -0.717962 0.000000 0.000000 0.000000 -58.609491 17.400138 -11.765090 -16.312019 -0.855142 -17.983333 -44.082652 -39.870081 -67.068465 
0.000419 0.934737 0.000513 -8.091241 3.699018 3.125539 0.000000 0.000000 0.000000 12.382066 -1.582328 -3.641400 -2.451681 0.128060 10.359924 7.802208 21.236950 0.239257 0.000000 0.000000 0.000000 -2.575792 2.098348 -13.514964 6.170473 -1.021589 11.102222 4.876940 6.604568 6.254991 0.000000 0.000000 0.000000 14.878083 -1.110639 -9.936820 -6.836391 -0.276691 -12.698404 -2.889824 0.192062 9.147327 0.000000 0.000000 0.000000 -1.818163 1.051916 -7.906277 0.000000 0.000000 0.000000 30.900990 -16.433741 -8.025966 -28.226293 8.062052 13.602319 8.564014 3.559476 -0.689125 0.000000 0.000000 0.000000 -58.592806 17.399456 -11.769739 -16.308928 -0.855080 -18.009874 -44.037242 -39.851045 -67.154834 
0.000543 0.934743 0.000707 -8.095563 3.714541 3.139057 0.000000 0.000000 0.000000 12.385845 -1.584068 -3.648702 -2.457484 0.128874 10.360287 7.802558 21.228102 0.230566 0.000000 0.000000 0.000000 -2.572042 2.097999 -13.508764 6.163195 -1.019674 11.090597 4.873199 6.587227 6.260588 0.000000 0.000000 0.000000 14.884064 -1.146762 -9.780801 -6.831464 -0.286713 -12.783057 -2.875427 0.204861 9.149562 0.000000 0.000000 0.000000 -1.809249 1.048873 -7.949167 0.000000 0.000000 0.000000 30.938487 -16.359949 -7.949380 -28.314483 8.066841 13.549528 8.560747 3.557949 -0.684295 0.000000 0.000000 0.000000 -58.575321 17.397945 -11.774246 -16.312269 -0.856345 -18.037945 -44.011283 -39.840402 -67.223441 
0.000675 0.934758 0.000872 -8.083773 3.730484 3.150898 0.000000 0.000000 0.000000 12.371118 -1.585318 -3.660895 -2.466225 0.130075 10.371303 7.803216 21.220195 0.222314 0.000000 0.000000 0.000000 -2.589381 2.093566 -13.489212 6.155101 -1.018154 11.063384 4.876065 6.588983 6.266194 0.000000 0.000000 0.000000 14.877808 -1.170852 -9.670562 -6.829641 -0.292467 -12.831774 -2.857355 0.213810 9.169192 0.000000 0.000000 0.000000 -1.814728 1.051869 -7.975699 0.000000 0.000000 0.000000 30.975552 -16.366989 -7.952628 -28.373131 8.090673 13.570199 8.614236 3.582582 -0.672172 0.000000 0.000000 0.000000 -58.575845 17.419067 -11.817480 -16.305297 -0.854853 -18.026178 -43.983470 -39.836976 -67.288657 
0.000834 0.934781 0.001033 -8.081630 3.752292 3.161113 0.000000 0.000000 0.000000 12.367011 -1.587442 -3.674219 -2.472320 0.130758 10.382515 7.800925 21.208022 0.217058 0.000000 0.000000 0.000000 -2.595194 2.090048 -13.468450 6.145075 -1.015987 11.032131 4.872358 6.575757 6.269293 0.000000 0.000000 0.000000 14.884889 -1.191253 -9.585414 -6.815668 -0.297807 -12.871004 -2.834145 0.221100 9.200266 0.000000 0.000000 0.000000 -1.809500 1.050535 -8.018729 0.000000 0.000000 0.000000 31.008106 -16.406680 -7.987514 -28.429071 8.123845 13.616962 8.682510 3.615501 -0.634153 0.000000 0.000000 0.000000 -58.604309 17.457656 -11.893747 -16.303938 -0.853673 -17.971223 -43.989527 -39.847608 -67.307533 
0.001004 0.934813 0.001185 -8.068418 3.778783 3.175019 0.000000 0.000000 0.000000 12.340860 -1.589054 -3.693161 -2.466157 0.129414 10.393541 7.800193 21.192753 0.205570 0.000000 0.000000 0.000000 -2.616207 2.086408 -13.453554 6.138788 -1.014720 11.003781 4.867829 6.556976 6.274828 0.000000 0.000000 0.000000 14.876823 -1.205607 -9.518075 -6.792908 -0.301964 -12.895446 -2.800701 0.224241 9.225133 0.000000 0.000000 0.000000 -1.752568 1.026560 -8.060769 0.000000 0.000000 0.000000 31.027654 -16.450533 -8.026707 -28.458694 8.148549 13.659632 8.774706 3.659757 -0.591611 0.000000 0.000000 0.000000 -58.669336 17.482138 -11.949321 -16.299973 -0.851927 -17.909113 -43.997211 -39.859378 -67.305873 
